<?xml version="1.0" encoding="UTF-8" standalone="no"?>
<svg width="846px" height="300px" viewBox="0 0 846 300" version="1.1" xmlns="http://www.w3.org/2000/svg" xmlns:xlink="http://www.w3.org/1999/xlink" xmlns:sketch="http://www.bohemiancoding.com/sketch/ns">
    <!-- Generator: Sketch 3.3.3 (12072) - http://www.bohemiancoding.com/sketch -->
    <title>Desktop HD</title>
    <desc>Created with Sketch.</desc>
    <defs></defs>
    <g id="Page-1" stroke="none" stroke-width="1" fill="none" fill-rule="evenodd" sketch:type="MSPage">
        <g id="Desktop-HD" sketch:type="MSArtboardGroup" fill="#3A7EB7">
            <text id="sansbias" sketch:type="MSTextLayer" font-family="SF UI Display" font-size="187.2" font-weight="bold" sketch:alignment="middle">
                <tspan x="31.1175781" y="167.733203">sansbias</tspan>
            </text>
            <g id="Group" sketch:type="MSLayerGroup" transform="translate(25.000000, 189.000000)">
                <rect id="Rectangle-1" sketch:type="MSShapeGroup" x="0" y="0" width="33" height="50"></rect>
                <rect id="Rectangle-1-Copy" sketch:type="MSShapeGroup" x="42" y="0" width="33" height="82"></rect>
                <rect id="Rectangle-1-Copy-2" sketch:type="MSShapeGroup" x="84" y="0" width="33" height="67"></rect>
                <rect id="Rectangle-1-Copy-3" sketch:type="MSShapeGroup" x="126" y="0" width="33" height="95"></rect>
                <rect id="Rectangle-1-Copy-4" sketch:type="MSShapeGroup" x="168" y="0" width="33" height="58"></rect>
                <rect id="Rectangle-1-Copy-5" sketch:type="MSShapeGroup" x="210" y="0" width="33" height="29"></rect>
                <rect id="Rectangle-1-Copy-6" sketch:type="MSShapeGroup" transform="translate(268.500000, 37.000000) scale(-1, 1) translate(-268.500000, -37.000000) " x="252" y="0" width="33" height="74"></rect>
                <rect id="Rectangle-1-Copy-13" sketch:type="MSShapeGroup" transform="translate(310.500000, 25.000000) scale(-1, 1) translate(-310.500000, -25.000000) " x="294" y="0" width="33" height="50"></rect>
                <rect id="Rectangle-1-Copy-7" sketch:type="MSShapeGroup" transform="translate(352.500000, 41.000000) scale(-1, 1) translate(-352.500000, -41.000000) " x="336" y="0" width="33" height="82"></rect>
                <rect id="Rectangle-1-Copy-8" sketch:type="MSShapeGroup" transform="translate(394.500000, 33.500000) scale(-1, 1) translate(-394.500000, -33.500000) " x="378" y="0" width="33" height="67"></rect>
                <rect id="Rectangle-1-Copy-9" sketch:type="MSShapeGroup" transform="translate(436.500000, 20.500000) scale(-1, 1) translate(-436.500000, -20.500000) " x="420" y="0" width="33" height="41"></rect>
                <rect id="Rectangle-1-Copy-10" sketch:type="MSShapeGroup" transform="translate(478.500000, 29.000000) scale(-1, 1) translate(-478.500000, -29.000000) " x="462" y="0" width="33" height="58"></rect>
                <rect id="Rectangle-1-Copy-11" sketch:type="MSShapeGroup" transform="translate(520.500000, 41.000000) scale(-1, 1) translate(-520.500000, -41.000000) " x="504" y="0" width="33" height="82"></rect>
                <rect id="Rectangle-1-Copy-12" sketch:type="MSShapeGroup" transform="translate(562.500000, 47.500000) scale(-1, 1) translate(-562.500000, -47.500000) " x="546" y="0" width="33" height="95"></rect>
                <rect id="Rectangle-1-Copy-21" sketch:type="MSShapeGroup" transform="translate(604.500000, 37.000000) scale(-1, 1) translate(-604.500000, -37.000000) " x="588" y="0" width="33" height="74"></rect>
                <rect id="Rectangle-1-Copy-14" sketch:type="MSShapeGroup" transform="translate(646.500000, 25.000000) scale(-1, 1) translate(-646.500000, -25.000000) " x="630" y="0" width="33" height="50"></rect>
                <rect id="Rectangle-1-Copy-15" sketch:type="MSShapeGroup" transform="translate(688.500000, 41.000000) scale(-1, 1) translate(-688.500000, -41.000000) " x="672" y="0" width="33" height="82"></rect>
                <rect id="Rectangle-1-Copy-16" sketch:type="MSShapeGroup" transform="translate(730.500000, 33.500000) scale(-1, 1) translate(-730.500000, -33.500000) " x="714" y="0" width="33" height="67"></rect>
                <rect id="Rectangle-1-Copy-17" sketch:type="MSShapeGroup" transform="translate(772.500000, 20.500000) scale(-1, 1) translate(-772.500000, -20.500000) " x="756" y="0" width="33" height="41"></rect>
            </g>
        </g>
    </g>
</svg>